<svg width="18" height="22" viewBox="0 0 18 22" fill="none" xmlns="http://www.w3.org/2000/svg">
<path d="M12 17H17L15.5951 15.5951C15.2141 15.2141 15 14.6973 15 14.1585V11C15 8.38757 13.3304 6.16509 11 5.34142V5C11 3.89543 10.1046 3 9 3C7.89543 3 7 3.89543 7 5V5.34142C4.66962 6.16509 3 8.38757 3 11V14.1585C3 14.6973 2.78595 15.2141 2.40493 15.5951L1 17H6M12 17V18C12 19.6569 10.6569 21 9 21C7.34315 21 6 19.6569 6 18V17M12 17H6" stroke="#9CA3AF" stroke-width="2" stroke-linecap="round" stroke-linejoin="round"/>
<circle cx="13" cy="4" r="4" fill="#EB2A2A"/>
</svg>
